<?xml version="1.0" encoding="UTF-8"?>
<svg id="Capa_1" data-name="Capa 1" xmlns="http://www.w3.org/2000/svg" viewBox="0 0 474 474">
  <defs>
    <style>
      .cls-1 {
        fill: #F2668B;
      }
    </style>
  </defs>
  <path class="cls-1" d="m436,0c5.67,0,11.33,0,17,0,.73.73,1.33,1.76,2.21,2.15,7.74,3.41,13.38,8.81,16.61,16.71.35.87,1.43,1.44,2.18,2.14v17c-.74.77-1.76,1.42-2.16,2.33-4.38,10.11-12,16.03-22.74,18.28-1.96.41-4,1.62-5.45,3.03-9.4,9.2-18.65,18.55-27.93,27.87-3.2,3.21-6.36,6.46-8.81,8.95,4.44,3.01,9.31,5.02,12.28,8.61,4.84,5.86,8.73,12.58,12.48,19.24,4.02,7.15,5.29,14.93,3.78,23.17-.23,1.27,1.11,3.68,2.32,4.23,5.19,2.34,8.82,6.03,10.72,11.27,2.72,7.51,5.32,15.06,7.64,22.7,3.09,10.18,1.49,19.98-2.61,29.68-1.54,3.64-2.49,7.93-2.26,11.84,2.4,40.91-5.86,79.48-25.3,115.51-5.66,10.49-12.49,20.35-19.71,32.01,5.87,5.42,12.54,10.98,18.5,17.2,18.34,19.17,31.43,42.08,45.36,64.38.92,1.47,2.59,2.46,3.91,3.68v12h-12c-1.23-1.32-2.23-3.03-3.73-3.91-29.3-17.39-57.63-36.04-80.89-61.38-.53-.57-1.29-.93-1.91-1.36-.62.36-1.1.55-1.48.86-28.16,22.99-60.07,37.94-95.75,44.95-1.71.34-3.55,1.77-4.62,3.22-3.1,4.21-7,6.42-12.24,6.59-8.66.28-17.31.88-25.97,1.02-3.59.06-7.21-1.13-10.79-1-8.92.32-17.83,1.52-26.75,1.53-8.63,0-15.43-4.15-19.11-12.16-1.42-3.09-3.46-4.43-6.48-5.36-18.75-5.71-36.36-13.91-52.68-24.77-7.18-4.78-14.09-9.96-21.22-15.02-7.46,7.05-14.85,14.24-22.45,21.18-18.21,16.63-39.53,28.78-60.3,41.72-1.46.91-2.44,2.6-3.64,3.92H0C0,470,0,466,0,462c1.3-1.17,2.98-2.12,3.83-3.55,17.68-29.9,36.83-58.66,62.76-82.26.44-.4.59-1.1.94-1.8-22.23-28.68-36.05-60.93-42.31-96.5-.28-1.6-1.45-3.29-2.69-4.42-5.12-4.68-6.84-10.5-7.71-17.25-1.51-11.71,5.75-22.66,2.37-34.38-.04-.14.06-.32.08-.49,1.35-7.88,2.7-15.75,4.06-23.63.85-4.92,2.69-9.19,7.1-12.11,1.22-.81,2.2-2.43,2.63-3.87,8.13-27.31,21.15-52.04,39.12-74.11,2.44-3,1.89-4.56-.54-6.95-13.29-13.08-26.4-26.35-39.7-39.42-1.42-1.39-3.57-2.41-5.54-2.82-10.43-2.14-17.68-8.03-22.05-17.68C1.87,39.7.8,38.91,0,38c0-5.67,0-11.33,0-17,.64-.46,1.61-.79,1.86-1.41C5.27,11.1,11.08,5.09,19.71,1.86,20.29,1.64,20.58.64,21,0c5.67,0,11.33,0,17,0,.79.75,1.45,1.78,2.39,2.19,10.07,4.42,16.09,11.95,18.2,22.77.38,1.95,1.64,3.98,3.05,5.43,7.77,8,15.7,15.85,23.6,23.73,6.43,6.42,12.89,12.81,19.21,19.09,1.06-.55,1.54-.72,1.93-1.01,20.55-15.77,43.21-27.39,67.96-35.04,1.88-.58,3.79-2.57,4.75-4.4,2.97-5.69,6.79-10.78,13.03-12.4,11.01-2.86,22.44-7.06,32.41,3.22,5.96-6.54,12.86-9.6,21.3-8.28,4.93.77,9.83,1.73,14.75,2.57,6.65,1.13,11.38,4.9,15.32,10.26,1.47,2,4.01,3.93,6.38,4.46,26.47,5.87,51.03,16.12,73.53,31.25,4.52,3.04,8.98,6.18,13.82,9.51,14.24-14.29,28.38-28.37,42.35-42.64,1.73-1.77,3.09-4.34,3.63-6.75,2.22-10,7.87-17.03,17.08-21.38,1.23-.58,2.21-1.7,3.31-2.58ZM29.48,251.06c0,1.33-.04,2.67,0,4,.23,7.4,3.76,10.19,11.05,8.65,46.29-9.78,87.89-29.37,124.28-59.71,36.82-30.69,63.72-68.73,82.05-112.79,6.37-15.32,11.2-31.3,16.47-47.07,2.52-7.53.21-10.99-7.44-12.41-2.95-.55-5.91-1.04-8.86-1.54-8.58-1.44-10.38-.44-13.24,7.95-7.87,23.07-17.6,45.31-30.08,66.24-38.55,64.66-93.4,109.29-164.77,133.47-8.98,3.04-9.42,3.66-9.45,13.2Zm149.47-37.03c-.42-.25-.84-.5-1.27-.75.17.28.3.6.53.82,25.67,24.71,40.28,55.52,48.82,89.52,11.39,45.37,11.21,91.34,6.48,137.5-.28,2.72-.39,5.45-.54,7.52,8.71,0,16.68-.02,24.66.01,3.05.01,4.26-1.25,4.51-4.45.82-10.78,2.16-21.53,3.02-32.31,3.03-38.18,2.17-76.2-5.05-113.92-5.85-30.56-15.93-59.45-34.1-85.06-6.55-9.24-14.04-17.63-23.57-25.04-7.97,8.88-15.72,17.53-23.47,26.17Zm88.07,50.1c10.27-2.18,20.62-3.83,30.65-6.6,57.24-15.84,98.67-50.05,121.65-105.5,2.29-5.53,3.2-11.15.52-16.43-3.38-6.65-7.49-12.95-11.6-19.18-1.85-2.8-4.21-2.28-5.83.63-.65,1.16-1.11,2.42-1.65,3.63-23.05,51.33-61.53,85.59-114.81,103.24-10.22,3.39-20.78,5.77-31.34,8.66,4.03,10.23,8.07,20.52,12.41,31.55Zm3.93,14.61c1.73,9.06,3.39,18.36,5.41,27.57.21.97,2.64,2.19,3.94,2.08,24.56-2.07,48.29-7.65,71-17.3,38.2-16.24,68.05-41.89,88.12-78.53,3.99-7.29,4.94-14.78,2.38-22.63-2.01-6.16-4.09-12.32-6.58-18.3-.76-1.83-2.75-3.56-4.6-4.3-.71-.29-3.06,2.06-3.84,3.61-24.68,49.31-63.87,81.46-116.16,97.84-12.8,4.01-26.06,6.58-39.68,9.96Zm-105.4-56.33c-7.53,5.3-14.9,10.5-22.49,15.84,11.89,13.96,21.13,28.9,28.12,45.25,15.32,35.84,20.76,73.56,21.01,112.18.1,14.98-.81,29.97-1.41,44.95-.19,4.62,1.34,8.53,5.93,8.99,7,.7,14.13.18,21.07.18,4.85-30.92,5.62-75.09,2.04-105.34-3.33-28.15-9.86-55.4-22.89-80.78-7.96-15.51-17.86-29.58-31.38-41.28Zm-134.06,1.74c1.2.06,1.71.22,2.13.08,3.47-1.14,6.97-2.24,10.39-3.53,67.98-25.72,118.89-70.96,153.25-134.79,7.08-13.15,12.65-27.12,18.58-40.86,2.48-5.75-.79-12.69-5.63-13.38-8.71-1.24-15.8,2.83-19.47,10.96-9.68,21.46-21.38,41.77-35.5,60.62-30.56,40.8-68.98,71.88-115.39,93.04-1.43.65-3.48,1.68-3.73,2.86-1.75,8.22-3.1,16.53-4.62,25Zm313.38-49.09c6.44-7,12.3-13.54,18.37-19.89,2.33-2.44,2.02-4.18.12-6.79-16.23-22.32-36.4-40.2-60.7-53.16-11.2-5.98-23.06-10.73-34.88-16.16-4.91,11.55-9.3,21.89-13.85,32.59,35.62,13.13,66.1,33.25,90.93,63.41Zm-67.29,263.79c10.63-3.24,20.32-6.01,29.86-9.21,2.35-.79,4.69-2.56,6.28-4.51,22.66-27.85,35.44-59.93,40.22-95.32,1.07-7.95,1.53-15.98,2.32-24.56-9.14,3.07-17.09,5.93-25.18,8.35-3.18.95-3.98,2.57-4.12,5.66-1.76,37.97-17.16,69.62-44.56,95.67-1.17,1.11-2.73,2.46-2.92,3.86-.83,6.21-1.23,12.48-1.89,20.04Zm56.27-254.34c-23.19-28.14-51.22-46.83-83.97-58.69-1.03-.37-3.21.06-3.68.83-5.36,8.74-10.48,17.61-15.65,26.41,7.88,3.75,15.68,7.08,23.11,11.09,16.85,9.09,31.63,20.86,44.04,35.52,1.41,1.67,2.56,3.98,5.63,2.19,9.88-5.74,19.86-11.31,30.51-17.34Zm-197.72,67.25c-.54.2-1.09.4-1.63.6-10.06,41.11-31.06,76.03-60.63,106.74,6.11,7.36,11.99,14.44,17.72,21.33,1.15-.52,1.53-.58,1.74-.8,28.26-28.43,48.39-61.56,58.02-100.72.26-1.04.39-2.46-.11-3.27-4.95-8.01-10.05-15.94-15.11-23.88Zm238.83-112.25c4.26-8.43,8.04-16.16,12.07-23.76,1.42-2.68,1.04-4.57-1.04-6.6-6.21-6.02-12.01-12.49-18.53-18.13-25.13-21.74-54.04-36.16-86.43-43.52-1.14-.26-3.54.98-3.92,2.03-1.89,5.27-3.3,10.71-5,16.51,41.53,13.92,76.08,37.35,102.86,73.46Zm22.87,142.64c-8.46,5.11-15.36,9.74-22.7,13.53-3.69,1.91-4.86,4.03-4.89,8-.19,27.73-5.1,54.62-15.62,80.31-4.05,9.88-9.13,19.34-14.01,29.56,1.66-.92,3.04-1.44,4.14-2.31,11.43-9.1,23.02-18.02,34.08-27.56,3.19-2.75,5.43-7.08,7.02-11.11,7.27-18.42,10.87-37.71,11.89-57.41.56-10.69.1-21.42.1-33.01Zm-269.65,128.89c1.43-1.32,2.22-1.94,2.88-2.67,16.58-18.28,30.11-38.56,39.62-61.38,1.3-3.13,1.9-7.15,1.19-10.41-2.72-12.6-6.1-25.06-9.23-37.58-.62-.02-1.24-.04-1.86-.06-11.87,35.37-31.94,65.58-58.3,92.37,8.87,6.81,17.16,13.17,25.71,19.73Zm-62.65-64.26c26.2-27.89,44.57-58.51,54.19-94.91-1.36.31-1.99.35-2.53.58-9.29,4.04-18.6,8.03-27.82,12.22-1.35.61-2.68,1.99-3.31,3.34-8.39,18.02-18.69,34.84-31.2,50.31-.86,1.07-1.53,3.22-1.04,4.3,3.57,7.82,7.46,15.48,11.71,24.15Zm220.61-137.36c-.71-1.47-.84-1.98-1.15-2.33-16.91-18.82-37.5-32.09-61.31-40.41-1.08-.38-3.08.04-3.8.85-2.62,2.93-4.87,6.19-6.36,8.15,9.98,12.35,19.69,23.86,28.78,35.84,5.09,6.7,4.62,7.06,12.9,5.62.33-.06.66-.08.98-.16,9.89-2.49,19.78-4.98,29.97-7.55Zm-6.7,114.1c.72,23.76,1.43,47.16,2.16,71.44,19.19-22.23,29.51-47.13,30.91-76.23-11.39,1.65-22.17,3.21-33.07,4.79Zm130.06,19.62c18.11-30.27,27.11-63,27.49-98.88-7.68,8.11-14.31,15.8-21.73,22.66-3.68,3.41-4.38,6.68-4.13,11.29.65,11.94,1.21,23.92.95,35.86-.21,9.7-1.67,19.37-2.58,29.06Zm-233.03,90.68c1.8-21.82,1.88-42.29.1-62.54-11.31,15.91-22.5,31.65-34.2,48.11,10.89,4.61,22.07,9.34,34.11,14.43ZM71.32,130.14c-9.7,14.81-17.22,29-22.36,44.36.42.41.84.81,1.25,1.22,13.17-8.5,26.34-17,40.82-26.35-7.1-6.92-13.07-12.76-19.71-19.23Zm8.52-11.74c.88-.51,1.77-1.02,2.65-1.54,6.48,7.26,12.95,14.52,19.81,22.21,4.6-4.25,10-9.24,15.42-14.26-5.99-8.78-13.96-14.41-22.48-19.32-1.07-.62-3.64-.21-4.53.7-3.83,3.87-7.29,8.1-10.88,12.21Zm63.06-22.82c-7.39-4.87-14.07-9.39-20.91-13.68-.99-.62-3.08-.68-3.98-.04-4.81,3.45-9.39,7.2-13.9,10.73,8.36,7,16.27,13.62,24.5,20.52,4.31-5.29,8.79-10.8,14.28-17.53Zm-74.96,177.62c-.35-.31-.69-.62-1.04-.94-8.74,2.15-17.47,4.29-26.92,6.61,2.19,8.64,4.27,16.84,6.34,25.05.56.1,1.12.19,1.68.29,6.64-10.34,13.29-20.67,19.93-31.01Zm83.35-189.15c5.69-9.47,11.28-18.79,16.88-28.11-.45-.46-.89-.92-1.34-1.38-10.97,5.26-21.93,10.52-33.54,16.08,6.47,4.82,11.87,8.84,18,13.4Z"/>
  <path class="cls-1" d="m21,0c-.42.64-.71,1.64-1.29,1.86C11.08,5.09,5.27,11.1,1.86,19.59,1.61,20.21.64,20.54,0,21V0c7,0,14,0,21,0Z"/>
  <path class="cls-1" d="m474,21c-.74-.71-1.82-1.28-2.18-2.14-3.23-7.89-8.87-13.3-16.61-16.71-.88-.39-1.48-1.42-2.21-2.15,7,0,14,0,21,0v21Z"/>
</svg>