<?xml version="1.0" encoding="UTF-8"?>
<svg id="Capa_1" data-name="Capa 1" xmlns="http://www.w3.org/2000/svg" viewBox="0 0 411.85 409.2">
  <path d="m218.65,339.58c.22,3.82.91,7.39.52,10.84-1,9.02-8.12,16.21-17.2,17.06-12.05,1.12-24.01.84-35.95-2.15-15.78-3.95-31.76-7.12-47.64-10.68-1.94-.43-3.92-.95-5.69-1.82-15.37-7.58-30.73-15.15-45.99-22.95-3.98-2.04-7.86-3.22-12.4-3.17-17.3.2-34.61.08-51.92.08H0v-13.74h2.48c18.88,0,37.76-.06,56.64.08,2.4.02,5.01.64,7.17,1.7,16.34,8.03,32.51,16.39,48.91,24.27,4.3,2.07,9.17,3.05,13.87,4.13,15.3,3.52,30.64,6.89,45.98,10.25,2.08.45,4.23.7,6.36.74,5.79.1,11.58.06,17.38.04,4.35-.01,7.12-2.7,7.1-6.82-.02-4.27-2.78-6.91-7.23-6.92-2.15,0-4.3-.11-6.43.02-9.44.56-18.61-.87-27.78-3.06-11.17-2.66-22.45-4.89-33.68-7.28-1.23-.26-1.68-.9-1.4-2.14.79-3.48,1.55-6.96,2.3-10.45.28-1.32,1.11-.96,1.97-.77,10.73,2.39,21.5,4.59,32.18,7.2,8.18,2,16.36,3.11,24.8,2.8,7.5-.28,15.02-.02,22.52-.06,3.31-.02,6.03-2.42,6.45-5.48.53-3.89-1.36-7.09-4.82-8.03-.74-.2-1.55-.2-2.33-.2-6.58-.01-13.17-.22-19.74.04-9.8.39-19.33-.89-28.84-3.22-10.95-2.68-22.02-4.87-33.05-7.22-1.27-.27-1.73-.8-1.45-2.05.78-3.48,1.56-6.96,2.29-10.45.27-1.31,1.05-1.01,1.94-.81,8.85,1.98,17.7,3.94,26.55,5.9,5.72,1.26,11.43,2.55,17.15,3.75,1.24.26,2.55.29,3.83.3,15.16.02,30.32.04,45.48.02,3.49,0,6.25-2.31,6.71-5.45.56-3.81-1.18-6.9-4.58-7.97-.8-.25-1.68-.3-2.52-.3-11.3-.02-22.6-.24-33.89.06-9.51.25-18.76-.87-27.99-3.14-10.46-2.57-21.04-4.69-31.57-7-.49-.11-.98-.22-1.48-.23-1.73-.03-2.25-.85-1.86-2.5.75-3.12,1.52-6.24,2.1-9.4.27-1.49.71-1.83,2.25-1.48,13.78,3.13,27.58,6.2,41.39,9.21,2.01.44,4.09.7,6.14.71,10.58.07,21.17.06,31.75.03,3.34-.01,6.06-2.35,6.52-5.41.58-3.8-1.16-6.91-4.54-7.99-.79-.25-1.68-.31-2.52-.31-6.29-.02-12.59-.2-18.88.03-10,.37-19.75-.78-29.49-3.12-15.89-3.82-31.89-7.16-47.85-10.68-2.93-.65-5.17-2.11-6.12-5.06-.93-2.9.47-5.12,2.42-7.09.95-.97,1.98-1.87,2.88-2.88,3.63-4.13,7.49-8.09,10.76-12.48,5.4-7.26,8.87-15.45,10.34-24.42.15-.9.2-1.81.32-2.94-5.82,0-11.45-.04-17.09.05-.66.01-1.41.64-1.94,1.17-11.59,11.57-23.25,23.07-34.66,34.82-3.48,3.59-7.1,5.29-12.21,5.24-22.74-.23-45.48-.1-68.22-.1-.85,0-1.7,0-2.72,0v-13.74c.82,0,1.65,0,2.48,0,22.6,0,45.2-.02,67.79.03,1.83,0,3.16-.45,4.51-1.82,11.87-12,23.86-23.87,35.73-35.87,2.43-2.46,5.13-3.84,8.58-3.51,1.7.16,2.39-.51,3.07-2.08,4.68-10.81,10.84-20.76,18.24-29.91,1.14-1.41,1.35-2.18-.04-3.69-12.15-13.24-19.81-28.71-22.48-46.54-.4-2.7-1.31-4.93-3.09-7.06-19.27-23.03-38.44-46.13-57.64-69.21-2.1-2.53-4.28-5-6.32-7.58-.36-.45-.53-1.68-.25-1.92,3.04-2.58,6.18-5.03,9.65-7.79,18.68,22.4,37.32,44.76,56.25,67.47v-22.02h13.8c0,.68,0,1.43,0,2.18,0,10.73-.05,21.45.01,32.18.11,20.85,7.53,38.72,22.04,53.67.85.87,1.67,1.77,2.55,2.6,2.05,1.94,2.89,4.31,2.87,7.12-.05,6.86-.04,13.73-.01,20.59.07,14.44,12.81,29.41,27.31,31.92v-67.83h13.87v2.22c0,13.66.03,27.32-.04,40.97,0,1.66.46,2.39,2.12,2.74,4.82.99,9.61,2.13,14.4,3.26,1.28.3,1.93-.05,2.43-1.31,6.94-17.43,13.92-34.86,20.94-52.26.56-1.38.14-2.26-.64-3.28-10.56-13.79-21.1-27.6-31.65-41.39-17.45-22.82-34.9-45.65-52.41-68.43-1.29-1.67-1.14-2.49.57-3.66,2.88-1.96,5.58-4.19,8.52-6.43,1.26,1.65,2.48,3.23,3.69,4.81,27.75,36.28,55.44,72.6,83.32,108.77,3.29,4.26,3.85,7.94,1.77,12.91-6.79,16.26-13.19,32.69-19.71,49.07-.39.97-.61,2-1.01,3.33,3.44,0,6.56.02,9.69,0,18.86-.15,37.09-3.51,54.39-11.17,5.93-2.62,11.66-5.72,17.4-8.76,12.76-6.77,13.08-24.54.08-32.21-15.3-9.02-31.61-15.21-49.14-18.11-3.83-.63-3.78-.6-3.16-4.43.49-3.02.83-6.07,1.29-9.49,2.17.36,4.24.65,6.29,1.05,18.11,3.49,35.17,9.7,51.05,19.17,8.49,5.06,14.13,12.05,16.34,21.78.31,1.39,1.24,2.73,2.17,3.86,7.9,9.59,14.84,19.82,19.92,31.16,9.14,20.43,13.98,41.84,12.96,64.31-.78,17.2-4.84,33.75-11.42,49.65-4.49,10.84-10.12,21.05-19.01,28.97-11.79,10.51-25.49,16.94-41.37,18.24-4.05.33-8.14.42-12.21.43-18.95.04-37.9.03-56.85,0-1.36,0-2.23.46-3.32,1.35-2.07,1.69-4.57,2.87-6.9,4.23-.41.24-.88.39-.83.36Zm114.59-182.77c-.45.65-.76,1.03-1,1.44-3.21,5.41-7.52,9.73-13.07,12.69-6.1,3.26-12.17,6.64-18.48,9.47-12.12,5.44-24.95,8.56-38.03,10.69-14.43,2.35-28.89,2.58-43.33.19-6.75-1.12-13.44-2.52-20.33-3.83,0,4.46,0,9.1,0,13.73,0,6.3-3.26,9.43-9.56,8.82-15.85-1.54-28.53-8.59-37.48-21.96-.25-.37-.56-.7-1.22-1.51-1.32,18.35-7.98,33.89-20.6,46.91.79.34,1.03.49,1.3.55,11.01,2.45,22,4.98,33.03,7.3,5.85,1.23,11.74,2.59,17.68,2.99,7.47.51,15.01.07,22.52.13,3.71.03,7.45.01,11.12.46,12.12,1.46,20.19,13.76,16.61,25.37-.64,2.07-.12,2.6,1.64,3.33,8.01,3.32,12.58,9.4,12.91,18.07.33,8.64-3.59,15.1-11.41,19.04-1.2.6-2.43,1.13-3.67,1.7.58,2.55,1.14,5.01,1.71,7.53.88,0,1.67,0,2.45,0,19.09,0,38.19.06,57.28-.02,20.37-.08,35.83-9.51,46.66-26.2,8.61-13.27,13.12-28.29,15.62-43.89.24-1.49.34-3,.54-4.85-.9.41-1.35.58-1.77.81-14.41,7.82-29.42,14.21-45.11,19-5.36,1.63-5.33,1.72-6.78-3.72-.67-2.53-1.36-5.05-2-7.43.39-.32.49-.45.61-.49,19.21-5.23,37.22-13.22,54.32-23.36,1.12-.67,1.67-1.37,1.52-2.7-.83-7.16-1.53-14.33-2.45-21.48-.33-2.56-1.15-5.05-1.82-7.86-14.86,11.7-31.28,19.28-48.67,25.44-1.42-4.06-2.79-7.87-4.03-11.73-.1-.32.56-1.15,1.04-1.37,8.75-4.02,17.6-7.81,26.26-12,6.96-3.37,13.38-7.67,19.06-13,1.16-1.09,1.57-2.03.79-3.52-3.09-5.87-6.04-11.82-9.19-17.65-1.31-2.42-3.02-4.63-4.66-7.1Zm-187.26,18.87c-.76-4.68-1.49-9.13-2.31-14.14-2.71,4.86-5.23,9.37-7.89,14.14h10.2Z"/>
  <path d="m68.71,347.47h13.58c0,1.93.11,3.77-.02,5.6-.26,3.41.93,6.36,3.38,8.46,3.61,3.1,7.37,6.13,11.44,8.57,9.74,5.84,20.44,9.43,31.35,12.45,21.35,5.91,43.18,8.89,65.2,10.87,29.06,2.61,58.14,2.65,87.21.65,27.49-1.9,54.67-5.91,80.99-14.48,9.34-3.04,18.25-7.01,26.47-12.45,1.66-1.1,3.23-2.37,4.78-3.63,4.41-3.57,5.88-8.2,4.79-13.76-3.37,2.03-6.63,4.18-10.06,6.03-11.65,6.26-24.18,10.17-36.9,13.51-16.75,4.4-33.82,7.02-50.99,9.08-23.68,2.83-47.45,3.65-71.28,3.35-2.93-.04-5.85-.25-8.93-.39v-13.43c.94-.07,1.84-.23,2.74-.19,19.24.81,38.48.29,57.67-1.05,28.57-1.99,56.82-6.04,84.06-15.35,8.52-2.91,16.79-6.51,24.23-11.69,2.27-1.58,4.44-3.41,6.31-5.44,4.25-4.6,4.29-9.39.32-14.24-4.12-5.03-9.5-8.42-15.27-11.18-3.33-1.6-6.85-2.8-10.25-4.28-.44-.19-.99-1.11-.87-1.48,1.21-3.65,2.49-7.28,3.96-10.83.16-.38,1.79-.53,2.53-.25,7.56,2.87,14.82,6.37,21.49,10.99,5.01,3.48,9.14,7.77,12.16,13.07,2.1,3.68,3.02,7.71,3.04,11.91.05,8.37.04,16.73,0,25.1-.03,9.15-4.57,16.06-11.2,21.77-7.78,6.72-16.93,11.08-26.47,14.67-18.73,7.06-38.14,11.4-57.91,14.18-9.69,1.36-19.4,2.68-29.14,3.54-24.74,2.2-49.52,2.63-74.34,1.38-18.44-.93-36.77-2.79-54.96-5.84-22.23-3.73-44.08-8.95-64.51-18.9-6.96-3.39-13.1-7.88-18.15-13.77-5.4-6.29-7.36-13.15-6.44-22.53Z"/>
  <path d="m102.86,103.11c3.18,2.59,6.25,5.02,9.2,7.59.33.29.24,1.57-.12,2.05-3.09,4.11-6.43,8.03-9.42,12.21-9.51,13.28-17.26,27.52-22.87,42.9-1.24,3.41-.98,3.25-4.31,1.95-2.45-.96-4.93-1.95-7.49-2.53-1.83-.42-1.81-1.26-1.29-2.57,1.69-4.24,3.28-8.52,5.12-12.69,7.74-17.56,18.03-33.52,30.4-48.17.18-.21.41-.39.78-.73Z"/>
  <path d="m411.42,157.64c-.53.2-1.06.39-1.59.59-3.39,1.33-6.76,2.7-10.18,3.94-.37.14-1.33-.36-1.5-.78-4.62-11.27-10.16-22.07-17.23-31.97-5.6-7.84-11.74-15.29-17.79-22.79-1.32-1.64-1.29-2.42.39-3.66,2.47-1.82,4.77-3.88,7.06-5.92.91-.81,1.42-.78,2.24.16,15.19,17.45,28.24,36.27,37.14,57.76.27.66.54,1.32.81,1.98.21.23.43.45.64.68Z"/>
  <path d="m379.41,269.96c3.39-12.88,4.69-25.89,5.04-39.15h13.77c-.24,4.66-.12,9.32-.78,13.86-1.3,8.95-3.03,17.84-4.56,26.76-.26,1.53-.86,1.97-2.48,1.48-3.53-1.08-7.12-1.93-11-2.95Z"/>
  <path d="m107.52,171.31c-.59-.21-.86-.3-1.13-.41-3.16-1.3-6.31-2.65-9.49-3.9-1.27-.5-1.55-1.07-.98-2.41,4.94-11.63,11.54-22.28,18.88-32.51.64-.89,1.17-1.26,2.23-.42,2.75,2.16,5.55,4.26,8.41,6.27,1.34.94.31,1.61-.1,2.28-2.79,4.48-5.8,8.83-8.4,13.42-2.98,5.27-5.6,10.75-8.4,16.12-.29.57-.7,1.08-1.02,1.56Z"/>
  <path d="m372.59,171.59c-1.44-3.06-2.6-6.07-4.2-8.83-4.47-7.7-9.09-15.32-13.71-22.93-.62-1.01-.36-1.4.5-2.02,3.07-2.2,6.06-4.5,9.76-7.26.17.41.3,1.01.62,1.46,7.25,10.12,13.73,20.68,18.61,32.17.62,1.46.67,2.16-1.1,2.82-3.52,1.32-6.9,3-10.49,4.59Z"/>
  <path d="m262.65,274.07c-.29-.35-1.1-.88-1.18-1.5-.45-3.46-.72-6.94-1.07-10.41-.12-1.2.41-1.57,1.59-1.66,3.26-.27,6.51-.67,9.76-1.08,1.09-.14,1.74.05,1.91,1.32.47,3.38,1.01,6.75,1.57,10.12.19,1.15-.16,1.74-1.37,1.88-3.54.39-7.07.84-11.21,1.34Z"/>
  <path d="m261.71,232.74c-.48-4.31-.91-8.12-1.33-11.93-.13-1.15.32-1.61,1.54-1.74,3.12-.34,6.23-.77,9.31-1.33,1.49-.27,2.1.22,2.34,1.61.56,3.23,1.21,6.45,1.71,9.68.08.55-.3,1.65-.6,1.7-4.25.74-8.52,1.35-12.97,2.02Z"/>
</svg>